<svg xmlns="http://www.w3.org/2000/svg" width="24.741" height="23.877" viewBox="0 0 24.741 23.877">
  <path id="report-bug" d="M24.74,13.473a1.544,1.544,0,0,1-1.578,1.45H20.488v.746a6.5,6.5,0,0,1-.657,2.852l2.91,2.809a1.456,1.456,0,0,1,0,2.11,1.586,1.586,0,0,1-2.187,0L17.91,20.888a7.085,7.085,0,0,1-4.38,1.5V11.006a.57.57,0,0,0-.58-.56h-1.16a.57.57,0,0,0-.58.56V22.385a7.085,7.085,0,0,1-4.38-1.5L4.186,23.44A1.586,1.586,0,0,1,2,23.44a1.456,1.456,0,0,1,0-2.11l2.91-2.809a6.5,6.5,0,0,1-.657-2.852v-.746H1.578A1.544,1.544,0,0,1,0,13.473a1.518,1.518,0,0,1,1.546-1.534H4.252V9.2L2,7.025a1.456,1.456,0,0,1,0-2.11,1.586,1.586,0,0,1,2.187,0l2.64,2.548H17.915l2.64-2.548a1.586,1.586,0,0,1,2.187,0,1.456,1.456,0,0,1,0,2.11L20.488,9.2v2.74h2.706A1.518,1.518,0,0,1,24.74,13.473ZM12.419,0A5.32,5.32,0,0,0,7.007,5.223H17.831A5.32,5.32,0,0,0,12.419,0Z" transform="translate(0)" fill="#fff"/>
</svg>
